# xmcd
#
# Track frame offsets: 
#        150
#        9883
#        21451
#        35561
#        48303
#        59724
#        71556
#        84290
#        95074
#        108141
#        120198
#        125193
#        137109
#        150372
#        162825
#        175378
#        186780
#        195532
#        207556
#        218092
#        229372
#        242228
#        256153
#
# Disc length: 3584 seconds
#
# Revision: 1
# Processed by: cddbd v1.5.2PL0 Copyright (c) Steve Scherf et al.
# Submitted via: ExactAudioCopy v0.99pb5
#
DISCID=440dfe17
DTITLE=Лидия Русланова - LRS-По улице мостовой
DYEAR=2000
DGENRE=Folk
TTITLE0=Во кузнице
TTITLE1=Тульские припевки
TTITLE2=Вот мчится тройка удалая
TTITLE3=Извозчичек
TTITLE4=Калужские страдания
TTITLE5=Саратовские частушки
TTITLE6=Калинушка
TTITLE7=Самарские припевки-Озеро
TTITLE8=Час да по часу
TTITLE9=Расти расти моя калинушка
TTITLE10=Из под  дуба из под вяза
TTITLE11=Частушки
TTITLE12=Златые горы
TTITLE13=Припевки
TTITLE14=Мальчишечка бедняжечка
TTITLE15=Коробейники
TTITLE16=Посею лебеду на берегу
TTITLE17=Камаринская
TTITLE18=Я на горку шла
TTITLE19=По улице мостовой
TTITLE20=При долине куст калины
TTITLE21=Отцвели в поле цветики
TTITLE22=Окрасился месяц багрянцем
EXTD=
EXTT0=
EXTT1=
EXTT2=
EXTT3=
EXTT4=
EXTT5=
EXTT6=
EXTT7=
EXTT8=
EXTT9=
EXTT10=
EXTT11=
EXTT12=
EXTT13=
EXTT14=
EXTT15=
EXTT16=
EXTT17=
EXTT18=
EXTT19=
EXTT20=
EXTT21=
EXTT22=
PLAYORDER=
